<svg width="88" height="88" viewBox="0 0 88 88" fill="none" xmlns="http://www.w3.org/2000/svg">
<path d="M70.4002 13.2H17.5864C15.1664 13.2 13.2002 15.1938 13.2002 17.6413V70.3588C13.2002 72.8063 15.1664 74.8 17.5864 74.8H70.4002C72.8202 74.8 74.8002 72.8063 74.8002 70.3588V17.6413C74.8002 15.1938 72.8202 13.2 70.4002 13.2ZM31.8177 66H22.6877V36.6025H31.8314V66H31.8177ZM27.2527 22C30.1814 22 32.5464 24.365 32.5464 27.2938C32.5464 30.2225 30.1814 32.5875 27.2527 32.5875C24.3239 32.5875 21.9589 30.2225 21.9589 27.2938C21.9589 24.365 24.3239 22 27.2527 22ZM66.0414 66H56.9114V51.7C56.9114 48.29 56.8427 43.9038 52.1677 43.9038C47.4102 43.9038 46.6814 47.6163 46.6814 51.4525V66H37.5514V36.6025H46.3102V40.6175H46.4339C47.6577 38.3075 50.6414 35.8738 55.0827 35.8738C64.3227 35.8738 66.0414 41.965 66.0414 49.885V66Z" fill="#502419"/>
</svg>
