<svg width="88" height="88" viewBox="0 0 88 88" fill="none" xmlns="http://www.w3.org/2000/svg">
<path d="M39.9302 37.9088C37.6752 39.325 36.3689 41.8688 36.5064 44.5225C36.6577 47.19 38.2527 49.555 40.6452 50.7238C43.0514 51.8788 45.8977 51.6313 48.0702 50.0913C50.3252 48.675 51.6314 46.1313 51.4939 43.4775C51.3427 40.81 49.7477 38.445 47.3552 37.2763C44.9489 36.1213 42.1027 36.3688 39.9302 37.9088ZM59.4964 28.5038C58.7814 27.7888 57.9152 27.225 56.9664 26.8538C54.4777 25.8775 49.0464 25.9188 45.5402 25.96C44.9764 25.96 44.4539 25.9738 44.0002 25.9738C43.5464 25.9738 43.0102 25.9738 42.4327 25.96C38.9264 25.9188 33.5227 25.8638 31.0339 26.8538C30.0852 27.225 29.2327 27.7888 28.5039 28.5038C27.7752 29.2188 27.2252 30.085 26.8539 31.0338C25.8777 33.5225 25.9327 38.9675 25.9602 42.4738C25.9602 43.0375 25.9739 43.56 25.9739 44C25.9739 44.44 25.9739 44.9625 25.9602 45.5263C25.9327 49.0325 25.8777 54.4775 26.8539 56.9663C27.2252 57.915 27.7889 58.7675 28.5039 59.4963C29.2189 60.225 30.0852 60.775 31.0339 61.1463C33.5227 62.1225 38.9539 62.0813 42.4602 62.04C43.0239 62.04 43.5464 62.0263 44.0002 62.0263C44.4539 62.0263 44.9902 62.0263 45.5677 62.04C49.0739 62.0813 54.4777 62.1363 56.9664 61.1463C57.9152 60.775 58.7677 60.2113 59.4964 59.4963C60.2252 58.7813 60.7752 57.915 61.1464 56.9663C62.1364 54.4913 62.0814 49.0738 62.0402 45.5538C62.0402 44.9763 62.0264 44.44 62.0264 43.9863C62.0264 43.5325 62.0264 43.01 62.0402 42.4188C62.0814 38.9125 62.1364 33.495 61.1464 31.0063C60.7752 30.0575 60.2114 29.205 59.4964 28.4763V28.5038ZM50.2702 34.6225C52.7589 36.2863 54.4777 38.8713 55.0689 41.8C55.6602 44.7288 55.0414 47.7813 53.3777 50.27C52.5527 51.5075 51.4939 52.5525 50.2702 53.3775C49.0464 54.2025 47.6577 54.7663 46.2002 55.055C43.2714 55.6325 40.2189 55.0275 37.7302 53.3638C35.2414 51.7 33.5227 49.115 32.9314 46.1863C32.3402 43.2575 32.9589 40.205 34.6089 37.7163C36.2589 35.2275 38.8577 33.5088 41.7864 32.9175C44.7152 32.3263 47.7677 32.945 50.2564 34.595H50.2702V34.6225ZM54.2852 34.4438C53.8589 34.155 53.5152 33.7425 53.3089 33.2613C53.1027 32.78 53.0614 32.2575 53.1577 31.735C53.2539 31.2125 53.5152 30.7588 53.8727 30.3875C54.2302 30.0163 54.7114 29.7688 55.2202 29.6725C55.7289 29.5763 56.2652 29.6175 56.7464 29.8238C57.2277 30.03 57.6402 30.36 57.9289 30.7863C58.2177 31.2125 58.3689 31.7213 58.3689 32.2438C58.3689 32.5875 58.3002 32.9313 58.1764 33.2475C58.0527 33.5638 57.8464 33.8525 57.6127 34.1C57.3789 34.3475 57.0764 34.54 56.7602 34.6775C56.4439 34.815 56.1002 34.8838 55.7564 34.8838C55.2339 34.8838 54.7252 34.7325 54.2989 34.4438H54.2852ZM74.8002 22C74.8002 17.1463 70.8539 13.2 66.0002 13.2H22.0002C17.1464 13.2 13.2002 17.1463 13.2002 22V66C13.2002 70.8538 17.1464 74.8 22.0002 74.8H66.0002C70.8539 74.8 74.8002 70.8538 74.8002 66V22ZM62.2877 62.2875C59.7164 64.8588 56.5952 65.67 53.0752 65.8488C49.4452 66.055 38.5552 66.055 34.9252 65.8488C31.4052 65.67 28.2839 64.8588 25.7127 62.2875C23.1414 59.7163 22.3302 56.595 22.1652 53.075C21.9589 49.445 21.9589 38.555 22.1652 34.925C22.3439 31.405 23.1414 28.2838 25.7127 25.7125C28.2839 23.1413 31.4189 22.33 34.9252 22.165C38.5552 21.9588 49.4452 21.9588 53.0752 22.165C56.5952 22.3438 59.7164 23.1413 62.2877 25.7125C64.8589 28.2838 65.6702 31.405 65.8352 34.925C66.0414 38.5413 66.0414 49.4175 65.8352 53.0613C65.6564 56.5813 64.8589 59.7025 62.2877 62.2738V62.2875Z" fill="#502419"/>
</svg>
