<svg width="1483" height="397" viewBox="0 0 1483 397" fill="none" xmlns="http://www.w3.org/2000/svg">
<path d="M2.00028 212.586C7.85834 211.689 18.7183 208.971 26.887 205.804C36.5499 202.058 47.234 197.2 57.4686 193.347C68.0051 189.38 78.9846 182.249 92.3317 177.492C103.032 173.679 112.937 170.914 122.934 169.099C132.904 167.29 149.146 166.374 163.906 165.246C187.665 163.43 196.772 167.271 206.068 169.31C216.447 171.586 225.314 174.067 240.476 177.01C253.282 179.495 265.166 179.504 280.796 181.543C289.669 182.7 297.813 184.044 304.596 184.268C310.516 184.464 337.026 185.403 374.614 185.178C402.056 185.015 423.728 180.428 438.244 179.742C454.576 178.969 471.762 177.71 498.45 177.023C508.913 176.754 516.642 175.888 549.215 175.216C578.201 174.617 632.472 173.197 661.552 172.728C704.608 172.034 735.39 176.323 751.088 177.472C767.164 178.648 785.272 179.504 806.556 180.19C838.161 181.209 883.595 180.428 898.77 178.838C917.971 176.826 936.087 177.248 972.438 176.119C995.134 175.415 1036.86 175.888 1061.26 176.337C1100.25 177.054 1110.14 180.401 1121.7 185.607C1132.44 190.446 1136.89 197.608 1140.98 210.493C1144.62 221.939 1145.97 232.023 1145.76 258.241C1145.65 272.575 1135.15 280.056 1126.53 290.699C1120.37 298.297 1120.61 325.181 1123.76 342.13C1126.71 357.958 1149.1 367.506 1158.18 372.95C1171.59 380.993 1192.54 384.279 1240.42 391.292C1285.05 397.828 1319.88 392.475 1333 388.18C1347.81 383.332 1353.9 373.46 1358.23 364.176C1364.86 349.949 1358.03 328.661 1351.7 315.925C1348.8 310.089 1344.44 305.487 1340.38 301.865C1332.01 294.404 1318.64 297.318 1287.91 297.08C1271.84 296.956 1258.4 302.728 1249.76 306.581C1239.78 311.027 1226.25 319.038 1215.79 320.866C1213.54 321.258 1211.27 320.424 1209.22 319.072C1200.69 313.457 1200.37 297.4 1198.31 283.991C1196.22 270.306 1201.24 260.212 1209.82 251.126C1220.86 239.436 1237.45 240.694 1276.54 240.219C1295.54 239.987 1309.48 252.873 1324.88 260.131C1346.64 270.393 1368.39 274.647 1390.78 274.66C1397.53 274.665 1401.49 271.045 1405.56 267.661C1414.79 259.981 1418.24 246.62 1424.37 232.573C1430.75 217.934 1435.02 197.228 1438.65 189.283C1442.79 180.211 1445.89 167.353 1448.39 156.67C1450.94 145.779 1454.51 135.167 1456.32 125.184C1458.38 113.882 1459.05 96.7294 1455.21 84.8502C1452.66 76.9448 1443.23 70.8234 1428.76 62.6547C1407.62 50.7116 1396.12 51.3055 1387.04 49.7152C1378.08 48.1445 1344.71 48.125 1320.91 46.9969C1305.49 46.2658 1291.95 44.5096 1262.75 39.0864C1248.19 36.382 1237.55 32.739 1227.34 27.7576C1225.12 26.6744 1223.94 25.046 1223.24 22.783C1222.55 20.5199 1222.55 17.3802 1223.89 15.09C1229.56 5.4387 1242.45 5.55528 1252.86 3.50292C1265.78 0.954867 1303.77 1.91269 1330.56 4.39319C1340.49 5.31334 1349.36 8.24649 1358.43 8.93288C1368.06 9.66104 1378.8 12.324 1390.14 15.0424C1402.57 18.0229 1414.57 20.017 1425.03 22.2937C1434.07 24.2616 1442.25 26.813 1450.86 30.2177C1459.48 32.7118 1465.37 34.9817 1469.89 35.6613C1472.16 35.8923 1474.41 35.8923 1480.79 37.2515" stroke="#D76A03" stroke-width="4" stroke-linecap="round"/>
</svg>
